<svg version="1.1" xmlns="http://www.w3.org/2000/svg" viewBox="0 0 845.3125 302.66980299831357" width="845.3125" height="302.66980299831357">
  <!-- svg-source:excalidraw -->
  
  <defs>
    <style class="style-fonts">
      @font-face {
        font-family: "Virgil";
        src: url("https://excalidraw.com/Virgil.woff2");
      }
      @font-face {
        font-family: "Cascadia";
        src: url("https://excalidraw.com/Cascadia.woff2");
      }
    </style>
  </defs>
  <rect x="0" y="0" width="845.3125" height="302.66980299831357" fill="#ffffff"></rect><g transform="translate(15 136.45610344205045) rotate(0 410.15625 12)"><text x="0" y="0" font-family="Cascadia, Segoe UI Emoji" font-size="20px" fill="#000000" text-anchor="start" style="white-space: pre;" direction="ltr">x (A) 2023-01-10 2023-01-01 first coursework +INAI @cw due:2023-02-01 </text></g><g stroke-linecap="round"><g transform="translate(25.210264339460196 133.45610344205045) rotate(0 21.034824968366934 -45.998034494528554)"><path d="M-0.44 0.71 C6.8 -14.58, 35.46 -75.5, 42.51 -91.07 M1.53 0.04 C8.78 -15.63, 35.44 -77.41, 42.06 -92.71" stroke="#000000" stroke-width="1" fill="none"></path></g><g transform="translate(25.210264339460196 133.45610344205045) rotate(0 21.034824968366934 -45.998034494528554)"><path d="M41.47 -61.16 C42.06 -68.88, 39.72 -77.69, 43.42 -94.45 M39.96 -63.1 C41.27 -72.64, 42.06 -83.15, 42.46 -93.48" stroke="#000000" stroke-width="1" fill="none"></path></g><g transform="translate(25.210264339460196 133.45610344205045) rotate(0 21.034824968366934 -45.998034494528554)"><path d="M22.64 -69.31 C27.47 -75.15, 29.32 -82.14, 43.42 -94.45 M21.13 -71.25 C28.8 -78.15, 35.99 -85.9, 42.46 -93.48" stroke="#000000" stroke-width="1" fill="none"></path></g></g><mask></mask><g transform="translate(10 10.456103442050448) rotate(0 65.859375 12)"><text x="0" y="0" font-family="Cascadia, Segoe UI Emoji" font-size="20px" fill="#000000" text-anchor="start" style="white-space: pre;" direction="ltr">可选-任务完成</text></g><g stroke-linecap="round"><g transform="translate(58.98634096095918 165.45610344205045) rotate(0 8.264796366566458 42.80111732220274)"><path d="M0.53 -0.25 C2.91 13.97, 12.41 71.58, 15 86.01 M-0.66 -1.43 C2.03 12.86, 14.51 72.24, 17.19 87.03" stroke="#000000" stroke-width="1" fill="none"></path></g><g transform="translate(58.98634096095918 165.45610344205045) rotate(0 8.264796366566458 42.80111732220274)"><path d="M1.24 59.68 C5.72 70.67, 11.85 78.1, 15.6 86.92 M2.64 60.74 C7.79 70.75, 13.12 79.52, 17.1 86.13" stroke="#000000" stroke-width="1" fill="none"></path></g><g transform="translate(58.98634096095918 165.45610344205045) rotate(0 8.264796366566458 42.80111732220274)"><path d="M21.38 55.71 C18.66 68.2, 17.57 77.06, 15.6 86.92 M22.77 56.76 C20.85 68.14, 19.07 78.32, 17.1 86.13" stroke="#000000" stroke-width="1" fill="none"></path></g></g><mask></mask><g transform="translate(26.140625 263.45610344205045) rotate(0 55.859375 12)"><text x="0" y="0" font-family="Cascadia, Segoe UI Emoji" font-size="20px" fill="#000000" text-anchor="start" style="white-space: pre;" direction="ltr">可选-优先级</text></g><g stroke-linecap="round"><g transform="translate(165.71490276089924 127.09970561154171) rotate(0 30.372434036364297 -40.6085461328924)"><path d="M-0.93 0.91 C9.31 -12.43, 51.25 -66.85, 61.67 -80.35 M0.78 0.35 C10.87 -13.31, 50.87 -68.41, 60.9 -82.13" stroke="#000000" stroke-width="1" fill="none"></path></g><g transform="translate(165.71490276089924 127.09970561154171) rotate(0 30.372434036364297 -40.6085461328924)"><path d="M54.12 -52.74 C56.43 -62.04, 59.52 -70.43, 62.07 -82.83 M51.98 -52.69 C55.49 -63.09, 58.2 -74.08, 60.93 -81.6" stroke="#000000" stroke-width="1" fill="none"></path></g><g transform="translate(165.71490276089924 127.09970561154171) rotate(0 30.372434036364297 -40.6085461328924)"><path d="M37.53 -64.82 C45.13 -70.12, 53.54 -74.63, 62.07 -82.83 M35.39 -64.77 C44.77 -70.78, 53.28 -77.55, 60.93 -81.6" stroke="#000000" stroke-width="1" fill="none"></path></g></g><mask></mask><g transform="translate(199.140625 15.099705611541822) rotate(0 40 12)"><text x="0" y="0" font-family="Cascadia, Segoe UI Emoji" font-size="20px" fill="#000000" text-anchor="start" style="white-space: pre;" direction="ltr">完成日期</text></g><g stroke-linecap="round"><g transform="translate(274.3835399172576 172.66980299831357) rotate(0 11.216980447979495 41.62979047267697)"><path d="M-0.4 0.77 C3.33 14.54, 18.77 69.57, 22.84 83.13 M1.59 0.13 C5.07 13.54, 17.93 67.71, 21.59 81.61" stroke="#000000" stroke-width="1" fill="none"></path></g><g transform="translate(274.3835399172576 172.66980299831357) rotate(0 11.216980447979495 41.62979047267697)"><path d="M6.1 55.79 C12.46 66.16, 16.43 75.24, 22.86 80.35 M5.03 57.72 C10.14 65.89, 16.44 73.51, 21.06 81.4" stroke="#000000" stroke-width="1" fill="none"></path></g><g transform="translate(274.3835399172576 172.66980299831357) rotate(0 11.216980447979495 41.62979047267697)"><path d="M26.02 50.83 C25.7 62.8, 22.96 73.55, 22.86 80.35 M24.94 52.76 C23.02 62.66, 22.32 72.02, 21.06 81.4" stroke="#000000" stroke-width="1" fill="none"></path></g></g><mask></mask><g transform="translate(241.140625 265.66980299831357) rotate(0 65.859375 12)"><text x="0" y="0" font-family="Cascadia, Segoe UI Emoji" font-size="20px" fill="#000000" text-anchor="start" style="white-space: pre;" direction="ltr">可选-创建日期</text></g><g stroke-linecap="round"><g transform="translate(577.5918684215819 165.66980299831357) rotate(0 12.70542109150665 46.01614344470204)"><path d="M0.25 -0.27 C4.85 15.15, 22.08 76.52, 26.49 91.97 M-1.08 -1.46 C3.48 14.21, 21.14 78.19, 25.68 93.49" stroke="#c92a2a" stroke-width="1" fill="none"></path></g><g transform="translate(577.5918684215819 165.66980299831357) rotate(0 12.70542109150665 46.01614344470204)"><path d="M7.64 69.61 C11.58 74.95, 16.02 80.32, 24.49 93.05 M7.56 68.77 C15.21 78.25, 20.22 86.32, 24.68 92.7" stroke="#c92a2a" stroke-width="1" fill="none"></path></g><g transform="translate(577.5918684215819 165.66980299831357) rotate(0 12.70542109150665 46.01614344470204)"><path d="M27.37 63.99 C27.19 70.54, 27.54 77.08, 24.49 93.05 M27.29 63.15 C27.98 74.62, 26.01 84.67, 24.68 92.7" stroke="#c92a2a" stroke-width="1" fill="none"></path></g></g><mask></mask><g transform="translate(547.140625 268.66980299831357) rotate(0 65.859375 12)"><text x="0" y="0" font-family="Cascadia, Segoe UI Emoji" font-size="20px" fill="#000000" text-anchor="start" style="white-space: pre;" direction="ltr">可选-项目标签</text></g><g stroke-linecap="round"><g transform="translate(758.0818159324315 175.66980299831357) rotate(0 10.881724123510367 40.17649939759633)"><path d="M-0.99 -0.31 C2.78 13.15, 18.82 68.27, 22.75 81.87 M0.69 -1.52 C4.28 12.13, 18.23 66.16, 21.73 80.21" stroke="#000000" stroke-width="1" fill="none"></path></g><g transform="translate(758.0818159324315 175.66980299831357) rotate(0 10.881724123510367 40.17649939759633)"><path d="M4.32 55.18 C11.79 62.81, 16.1 72.24, 22.54 80.68 M3.87 55.19 C9.39 62.67, 14.18 69.21, 20.88 79.68" stroke="#000000" stroke-width="1" fill="none"></path></g><g transform="translate(758.0818159324315 175.66980299831357) rotate(0 10.881724123510367 40.17649939759633)"><path d="M24.21 50.12 C25.52 59.17, 23.62 70.17, 22.54 80.68 M23.76 50.14 C23.77 58.81, 23.07 66.74, 20.88 79.68" stroke="#000000" stroke-width="1" fill="none"></path></g></g><mask></mask><g transform="translate(749.140625 267.66980299831357) rotate(0 40 12)"><text x="0" y="0" font-family="Cascadia, Segoe UI Emoji" font-size="20px" fill="#000000" text-anchor="start" style="white-space: pre;" direction="ltr">截止日期</text></g><g stroke-linecap="round"><g transform="translate(637.4077739765833 125) rotate(0 21.32366518795601 -39.65101690367794)"><path d="M-0.24 -0.53 C7.3 -14.04, 37.03 -67.75, 44.46 -81.11 M-1.82 1.81 C5.7 -11.5, 36.34 -66.12, 43.97 -79.63" stroke="#000000" stroke-width="1" fill="none"></path></g><g transform="translate(637.4077739765833 125) rotate(0 21.32366518795601 -39.65101690367794)"><path d="M38.21 -48.58 C40.08 -55.8, 41.91 -64.82, 44.24 -81.02 M38.48 -49.58 C40.87 -59.98, 42.57 -69.44, 44.02 -78.91" stroke="#000000" stroke-width="1" fill="none"></path></g><g transform="translate(637.4077739765833 125) rotate(0 21.32366518795601 -39.65101690367794)"><path d="M20.32 -58.64 C26.46 -63.43, 32.54 -70.06, 44.24 -81.02 M20.6 -59.65 C28.73 -66.78, 36.24 -72.97, 44.02 -78.91" stroke="#000000" stroke-width="1" fill="none"></path></g></g><mask></mask><g transform="translate(626.140625 13) rotate(0 65.859375 12)"><text x="0" y="0" font-family="Cascadia, Segoe UI Emoji" font-size="20px" fill="#000000" text-anchor="start" style="white-space: pre;" direction="ltr">可选-内容标签</text></g><g stroke-linecap="round"><g transform="translate(450.9876154392372 122) rotate(0 12.939257740100345 -40.57084430269896)"><path d="M0.69 1.05 C4.95 -12.84, 21.95 -68.56, 26.29 -82.2 M-0.41 0.56 C3.64 -12.73, 20.94 -67.97, 25.37 -81.29" stroke="#000000" stroke-width="1" fill="none"></path></g><g transform="translate(450.9876154392372 122) rotate(0 12.939257740100345 -40.57084430269896)"><path d="M28.27 -51.2 C23.82 -61.32, 25.81 -74.21, 23.82 -79.71 M26.71 -52.18 C26.17 -61.91, 25.66 -72.59, 26.35 -80.75" stroke="#000000" stroke-width="1" fill="none"></path></g><g transform="translate(450.9876154392372 122) rotate(0 12.939257740100345 -40.57084430269896)"><path d="M8.74 -57.48 C11.4 -65.44, 20.44 -76.07, 23.82 -79.71 M7.17 -58.46 C13.33 -66.17, 19.55 -74.68, 26.35 -80.75" stroke="#000000" stroke-width="1" fill="none"></path></g></g><mask></mask><g transform="translate(447.140625 10) rotate(0 40 12)"><text x="0" y="0" font-family="Cascadia, Segoe UI Emoji" font-size="20px" fill="#000000" text-anchor="start" style="white-space: pre;" direction="ltr">详细描述</text></g><g stroke-linecap="round" transform="translate(340 128.45610344205045) rotate(0 132.5 19.5)"><path d="M9.75 0 M9.75 0 C61.94 0.34, 110.24 1.27, 255.25 0 M9.75 0 C99.74 -0.56, 190.05 -0.72, 255.25 0 M255.25 0 C259.9 0.39, 263.07 3.18, 265 9.75 M255.25 0 C263.24 -1.87, 266.1 3.09, 265 9.75 M265 9.75 C263.32 15.56, 264.66 21.81, 265 29.25 M265 9.75 C265.18 17.54, 264.72 24.49, 265 29.25 M265 29.25 C266.94 35.25, 260.58 38.22, 255.25 39 M265 29.25 C263.57 35.56, 263.41 40.8, 255.25 39 M255.25 39 C163.46 39.71, 73.53 40.22, 9.75 39 M255.25 39 C183.17 36.89, 112.81 36.72, 9.75 39 M9.75 39 C3.95 38.66, 1.93 36.08, 0 29.25 M9.75 39 C5.2 37.05, 1.6 35.57, 0 29.25 M0 29.25 C0.44 24.77, 0.06 15.25, 0 9.75 M0 29.25 C-0.46 22.25, 0.37 15.59, 0 9.75 M0 9.75 C0.6 2.3, 4.77 0.8, 9.75 0 M0 9.75 C-0.03 1.02, 3.31 -1.15, 9.75 0" stroke="#000000" stroke-width="1" fill="none"></path></g><g stroke-linecap="round" transform="translate(542 136.45610344205045) rotate(0 29.5 13)"><path d="M6.5 0 M6.5 0 C14.85 -0.79, 24.02 0.75, 52.5 0 M6.5 0 C23.54 -0.6, 40.28 0.06, 52.5 0 M52.5 0 C57.23 1.34, 60.28 2.16, 59 6.5 M52.5 0 C56.27 1.73, 58.49 2.93, 59 6.5 M59 6.5 C60.01 8.5, 60.14 12.16, 59 19.5 M59 6.5 C58.54 11.41, 58.47 17.04, 59 19.5 M59 19.5 C60.23 24.29, 57.69 26.79, 52.5 26 M59 19.5 C59.1 24.81, 55.5 28.09, 52.5 26 M52.5 26 C39.56 28.35, 27.17 27.74, 6.5 26 M52.5 26 C37.24 25.96, 21.97 26.64, 6.5 26 M6.5 26 C1.15 27.63, -1.3 22.96, 0 19.5 M6.5 26 C1.99 27.07, -0.31 23.49, 0 19.5 M0 19.5 C-0.77 14.66, -0.33 10.49, 0 6.5 M0 19.5 C-0.08 16.82, 0.44 13.78, 0 6.5 M0 6.5 C0.21 1.13, 3.3 -1.56, 6.5 0 M0 6.5 C0.22 2.41, 2.17 -0.62, 6.5 0" stroke="#c92a2a" stroke-width="1" fill="none"></path></g></svg>